<mxfile host="app.diagrams.net" modified="2023-02-23T08:32:00.563Z" agent="5.0 (Windows NT 10.0; Win64; x64) AppleWebKit/537.36 (KHTML, like Gecko) Chrome/110.0.0.0 Safari/537.36 Edg/110.0.1587.50" etag="pJpl4nh_NgE73rzolDnS" version="20.8.21" type="github">
  <diagram name="第 1 页" id="X2DMT_Q1aMqcUORFusJd">
    <mxGraphModel dx="1050" dy="587" grid="1" gridSize="10" guides="1" tooltips="1" connect="1" arrows="1" fold="1" page="1" pageScale="1" pageWidth="827" pageHeight="1169" math="0" shadow="0">
      <root>
        <mxCell id="0" />
        <mxCell id="1" parent="0" />
        <mxCell id="XE-Fxspr8LeCNswNn09b-1" value="" style="rounded=0;whiteSpace=wrap;html=1;rotation=-90;" vertex="1" parent="1">
          <mxGeometry x="-120" y="203.24" width="327.84" height="50" as="geometry" />
        </mxCell>
        <mxCell id="XE-Fxspr8LeCNswNn09b-2" value="" style="ellipse;whiteSpace=wrap;html=1;aspect=fixed;" vertex="1" parent="1">
          <mxGeometry x="28.919999999999995" y="80" width="30" height="30" as="geometry" />
        </mxCell>
        <mxCell id="XE-Fxspr8LeCNswNn09b-3" value="" style="ellipse;whiteSpace=wrap;html=1;aspect=fixed;" vertex="1" parent="1">
          <mxGeometry x="28.919999999999995" y="350" width="30" height="30" as="geometry" />
        </mxCell>
        <mxCell id="XE-Fxspr8LeCNswNn09b-4" value="" style="ellipse;whiteSpace=wrap;html=1;aspect=fixed;" vertex="1" parent="1">
          <mxGeometry x="28.919999999999995" y="120" width="30" height="30" as="geometry" />
        </mxCell>
        <mxCell id="XE-Fxspr8LeCNswNn09b-5" value="" style="ellipse;whiteSpace=wrap;html=1;aspect=fixed;" vertex="1" parent="1">
          <mxGeometry x="28.919999999999995" y="160" width="30" height="30" as="geometry" />
        </mxCell>
        <mxCell id="XE-Fxspr8LeCNswNn09b-6" value="" style="ellipse;whiteSpace=wrap;html=1;aspect=fixed;" vertex="1" parent="1">
          <mxGeometry x="28.919999999999995" y="270" width="30" height="30" as="geometry" />
        </mxCell>
        <mxCell id="XE-Fxspr8LeCNswNn09b-7" value="" style="ellipse;whiteSpace=wrap;html=1;aspect=fixed;" vertex="1" parent="1">
          <mxGeometry x="28.919999999999995" y="310" width="30" height="30" as="geometry" />
        </mxCell>
        <mxCell id="XE-Fxspr8LeCNswNn09b-8" style="edgeStyle=orthogonalEdgeStyle;rounded=0;orthogonalLoop=1;jettySize=auto;html=1;exitX=0.5;exitY=1;exitDx=0;exitDy=0;" edge="1" parent="1" source="XE-Fxspr8LeCNswNn09b-4" target="XE-Fxspr8LeCNswNn09b-4">
          <mxGeometry relative="1" as="geometry" />
        </mxCell>
        <mxCell id="XE-Fxspr8LeCNswNn09b-10" value="" style="endArrow=none;dashed=1;html=1;rounded=1;strokeWidth=5;dashPattern=1 2;" edge="1" parent="1">
          <mxGeometry width="50" height="50" relative="1" as="geometry">
            <mxPoint x="43.42000000000002" y="264.31999999999994" as="sourcePoint" />
            <mxPoint x="43.42000000000002" y="192.16" as="targetPoint" />
          </mxGeometry>
        </mxCell>
        <mxCell id="XE-Fxspr8LeCNswNn09b-11" value="" style="whiteSpace=wrap;html=1;aspect=fixed;" vertex="1" parent="1">
          <mxGeometry x="160" y="173.23999999999998" width="80" height="80" as="geometry" />
        </mxCell>
        <mxCell id="XE-Fxspr8LeCNswNn09b-12" value="" style="whiteSpace=wrap;html=1;aspect=fixed;" vertex="1" parent="1">
          <mxGeometry x="150" y="188.23999999999998" width="80" height="80" as="geometry" />
        </mxCell>
        <mxCell id="XE-Fxspr8LeCNswNn09b-13" value="" style="whiteSpace=wrap;html=1;aspect=fixed;" vertex="1" parent="1">
          <mxGeometry x="140" y="203.23999999999998" width="80" height="80" as="geometry" />
        </mxCell>
        <mxCell id="XE-Fxspr8LeCNswNn09b-14" value="" style="whiteSpace=wrap;html=1;aspect=fixed;" vertex="1" parent="1">
          <mxGeometry x="130" y="219.99999999999997" width="80" height="80" as="geometry" />
        </mxCell>
        <mxCell id="XE-Fxspr8LeCNswNn09b-18" value="" style="whiteSpace=wrap;html=1;aspect=fixed;" vertex="1" parent="1">
          <mxGeometry x="320.99999999999994" y="197.61999999999998" width="49.24" height="49.24" as="geometry" />
        </mxCell>
        <mxCell id="XE-Fxspr8LeCNswNn09b-19" value="" style="whiteSpace=wrap;html=1;aspect=fixed;" vertex="1" parent="1">
          <mxGeometry x="313.99999999999994" y="209.62" width="54" height="54" as="geometry" />
        </mxCell>
        <mxCell id="XE-Fxspr8LeCNswNn09b-20" value="" style="whiteSpace=wrap;html=1;aspect=fixed;" vertex="1" parent="1">
          <mxGeometry x="306.99999999999994" y="220.38" width="54" height="54" as="geometry" />
        </mxCell>
        <mxCell id="XE-Fxspr8LeCNswNn09b-21" value="" style="whiteSpace=wrap;html=1;aspect=fixed;" vertex="1" parent="1">
          <mxGeometry x="299.99999999999994" y="230.38" width="54" height="54" as="geometry" />
        </mxCell>
        <mxCell id="XE-Fxspr8LeCNswNn09b-30" value="" style="whiteSpace=wrap;html=1;aspect=fixed;" vertex="1" parent="1">
          <mxGeometry x="459.99999999999994" y="173.24" width="80" height="80" as="geometry" />
        </mxCell>
        <mxCell id="XE-Fxspr8LeCNswNn09b-31" value="" style="whiteSpace=wrap;html=1;aspect=fixed;" vertex="1" parent="1">
          <mxGeometry x="449.99999999999994" y="188.24" width="80" height="80" as="geometry" />
        </mxCell>
        <mxCell id="XE-Fxspr8LeCNswNn09b-32" value="" style="whiteSpace=wrap;html=1;aspect=fixed;" vertex="1" parent="1">
          <mxGeometry x="439.99999999999994" y="203.24" width="80" height="80" as="geometry" />
        </mxCell>
        <mxCell id="XE-Fxspr8LeCNswNn09b-33" value="" style="whiteSpace=wrap;html=1;aspect=fixed;" vertex="1" parent="1">
          <mxGeometry x="429.99999999999994" y="220" width="80" height="80" as="geometry" />
        </mxCell>
        <mxCell id="XE-Fxspr8LeCNswNn09b-34" value="" style="whiteSpace=wrap;html=1;aspect=fixed;" vertex="1" parent="1">
          <mxGeometry x="621" y="196.48000000000005" width="54" height="54" as="geometry" />
        </mxCell>
        <mxCell id="XE-Fxspr8LeCNswNn09b-35" value="" style="whiteSpace=wrap;html=1;aspect=fixed;" vertex="1" parent="1">
          <mxGeometry x="614" y="208.48000000000002" width="54" height="54" as="geometry" />
        </mxCell>
        <mxCell id="XE-Fxspr8LeCNswNn09b-36" value="" style="whiteSpace=wrap;html=1;aspect=fixed;" vertex="1" parent="1">
          <mxGeometry x="607" y="219.24" width="54" height="54" as="geometry" />
        </mxCell>
        <mxCell id="XE-Fxspr8LeCNswNn09b-37" value="" style="whiteSpace=wrap;html=1;aspect=fixed;" vertex="1" parent="1">
          <mxGeometry x="600" y="229.24" width="54" height="54" as="geometry" />
        </mxCell>
        <mxCell id="XE-Fxspr8LeCNswNn09b-39" value="" style="rounded=0;whiteSpace=wrap;html=1;rotation=-90;" vertex="1" parent="1">
          <mxGeometry x="635.98" y="205.1" width="235.88" height="50" as="geometry" />
        </mxCell>
        <mxCell id="XE-Fxspr8LeCNswNn09b-42" value="" style="ellipse;whiteSpace=wrap;html=1;aspect=fixed;" vertex="1" parent="1">
          <mxGeometry x="738.92" y="120" width="30" height="30" as="geometry" />
        </mxCell>
        <mxCell id="XE-Fxspr8LeCNswNn09b-43" value="" style="ellipse;whiteSpace=wrap;html=1;aspect=fixed;" vertex="1" parent="1">
          <mxGeometry x="738.92" y="159.99999999999997" width="30" height="30" as="geometry" />
        </mxCell>
        <mxCell id="XE-Fxspr8LeCNswNn09b-44" value="" style="ellipse;whiteSpace=wrap;html=1;aspect=fixed;" vertex="1" parent="1">
          <mxGeometry x="738.92" y="270" width="30" height="30" as="geometry" />
        </mxCell>
        <mxCell id="XE-Fxspr8LeCNswNn09b-45" value="" style="ellipse;whiteSpace=wrap;html=1;aspect=fixed;" vertex="1" parent="1">
          <mxGeometry x="738.92" y="310" width="30" height="30" as="geometry" />
        </mxCell>
        <mxCell id="XE-Fxspr8LeCNswNn09b-46" style="edgeStyle=orthogonalEdgeStyle;rounded=0;orthogonalLoop=1;jettySize=auto;html=1;exitX=0.5;exitY=1;exitDx=0;exitDy=0;" edge="1" parent="1" source="XE-Fxspr8LeCNswNn09b-42" target="XE-Fxspr8LeCNswNn09b-42">
          <mxGeometry relative="1" as="geometry" />
        </mxCell>
        <mxCell id="XE-Fxspr8LeCNswNn09b-47" value="" style="endArrow=none;dashed=1;html=1;rounded=1;strokeWidth=5;dashPattern=1 2;" edge="1" parent="1">
          <mxGeometry width="50" height="50" relative="1" as="geometry">
            <mxPoint x="753.4200000000001" y="264.31999999999994" as="sourcePoint" />
            <mxPoint x="753.4200000000001" y="192.15999999999997" as="targetPoint" />
          </mxGeometry>
        </mxCell>
        <mxCell id="XE-Fxspr8LeCNswNn09b-50" value="" style="endArrow=classic;html=1;rounded=1;strokeWidth=2;" edge="1" parent="1">
          <mxGeometry width="50" height="50" relative="1" as="geometry">
            <mxPoint x="80" y="236.72000000000003" as="sourcePoint" />
            <mxPoint x="120" y="236.12" as="targetPoint" />
          </mxGeometry>
        </mxCell>
        <mxCell id="XE-Fxspr8LeCNswNn09b-51" value="" style="endArrow=classic;html=1;rounded=1;strokeWidth=2;" edge="1" parent="1">
          <mxGeometry width="50" height="50" relative="1" as="geometry">
            <mxPoint x="250" y="235.58000000000004" as="sourcePoint" />
            <mxPoint x="290" y="234.98000000000002" as="targetPoint" />
          </mxGeometry>
        </mxCell>
        <mxCell id="XE-Fxspr8LeCNswNn09b-52" value="" style="endArrow=classic;html=1;rounded=1;strokeWidth=2;" edge="1" parent="1">
          <mxGeometry width="50" height="50" relative="1" as="geometry">
            <mxPoint x="380" y="236.72000000000003" as="sourcePoint" />
            <mxPoint x="420" y="236.12" as="targetPoint" />
          </mxGeometry>
        </mxCell>
        <mxCell id="XE-Fxspr8LeCNswNn09b-53" value="" style="endArrow=classic;html=1;rounded=1;strokeWidth=2;" edge="1" parent="1">
          <mxGeometry width="50" height="50" relative="1" as="geometry">
            <mxPoint x="550" y="236.72000000000003" as="sourcePoint" />
            <mxPoint x="590" y="236.12" as="targetPoint" />
          </mxGeometry>
        </mxCell>
        <mxCell id="XE-Fxspr8LeCNswNn09b-54" value="" style="endArrow=classic;html=1;rounded=1;strokeWidth=2;" edge="1" parent="1">
          <mxGeometry width="50" height="50" relative="1" as="geometry">
            <mxPoint x="682" y="235.58000000000004" as="sourcePoint" />
            <mxPoint x="722" y="234.98000000000002" as="targetPoint" />
          </mxGeometry>
        </mxCell>
        <mxCell id="XE-Fxspr8LeCNswNn09b-56" value="" style="endArrow=classic;html=1;rounded=1;strokeWidth=2;" edge="1" parent="1">
          <mxGeometry width="50" height="50" relative="1" as="geometry">
            <mxPoint x="790" y="236.72000000000003" as="sourcePoint" />
            <mxPoint x="830" y="236.12" as="targetPoint" />
          </mxGeometry>
        </mxCell>
        <mxCell id="XE-Fxspr8LeCNswNn09b-57" value="" style="ellipse;whiteSpace=wrap;html=1;aspect=fixed;" vertex="1" parent="1">
          <mxGeometry x="849.9999999999999" y="221.61999999999998" width="30" height="30" as="geometry" />
        </mxCell>
        <mxCell id="XE-Fxspr8LeCNswNn09b-58" value="&lt;font style=&quot;font-size: 14px;&quot;&gt;&lt;b&gt;输入&lt;/b&gt;&lt;/font&gt;" style="text;html=1;align=center;verticalAlign=middle;resizable=0;points=[];autosize=1;strokeColor=none;fillColor=none;" vertex="1" parent="1">
          <mxGeometry x="18.92" y="30" width="50" height="30" as="geometry" />
        </mxCell>
        <mxCell id="XE-Fxspr8LeCNswNn09b-59" value="&lt;font style=&quot;font-size: 14px;&quot;&gt;&lt;b&gt;卷积层&lt;/b&gt;&lt;/font&gt;" style="text;html=1;align=center;verticalAlign=middle;resizable=0;points=[];autosize=1;strokeColor=none;fillColor=none;" vertex="1" parent="1">
          <mxGeometry x="155" y="120" width="70" height="30" as="geometry" />
        </mxCell>
        <mxCell id="XE-Fxspr8LeCNswNn09b-60" value="&lt;font style=&quot;font-size: 14px;&quot;&gt;&lt;b&gt;卷积层&lt;/b&gt;&lt;/font&gt;" style="text;html=1;align=center;verticalAlign=middle;resizable=0;points=[];autosize=1;strokeColor=none;fillColor=none;" vertex="1" parent="1">
          <mxGeometry x="465" y="120" width="70" height="30" as="geometry" />
        </mxCell>
        <mxCell id="XE-Fxspr8LeCNswNn09b-61" value="&lt;span style=&quot;font-size: 14px;&quot;&gt;&lt;b&gt;池化层&lt;/b&gt;&lt;/span&gt;" style="text;html=1;align=center;verticalAlign=middle;resizable=0;points=[];autosize=1;strokeColor=none;fillColor=none;" vertex="1" parent="1">
          <mxGeometry x="314" y="120" width="70" height="30" as="geometry" />
        </mxCell>
        <mxCell id="XE-Fxspr8LeCNswNn09b-62" value="&lt;span style=&quot;font-size: 14px;&quot;&gt;&lt;b&gt;池化层&lt;/b&gt;&lt;/span&gt;" style="text;html=1;align=center;verticalAlign=middle;resizable=0;points=[];autosize=1;strokeColor=none;fillColor=none;" vertex="1" parent="1">
          <mxGeometry x="614" y="120" width="70" height="30" as="geometry" />
        </mxCell>
        <mxCell id="XE-Fxspr8LeCNswNn09b-63" value="&lt;font style=&quot;font-size: 14px;&quot;&gt;&lt;b&gt;全连接层&lt;/b&gt;&lt;/font&gt;" style="text;html=1;align=center;verticalAlign=middle;resizable=0;points=[];autosize=1;strokeColor=none;fillColor=none;" vertex="1" parent="1">
          <mxGeometry x="713.92" y="70" width="80" height="30" as="geometry" />
        </mxCell>
        <mxCell id="XE-Fxspr8LeCNswNn09b-64" value="&lt;font style=&quot;font-size: 14px;&quot;&gt;&lt;b&gt;输出&lt;/b&gt;&lt;/font&gt;" style="text;html=1;align=center;verticalAlign=middle;resizable=0;points=[];autosize=1;strokeColor=none;fillColor=none;" vertex="1" parent="1">
          <mxGeometry x="842" y="179.62" width="50" height="30" as="geometry" />
        </mxCell>
      </root>
    </mxGraphModel>
  </diagram>
</mxfile>
